<?xml version="1.0" standalone="no"?>
<!DOCTYPE svg PUBLIC "-//W3C//DTD SVG 20010904//EN"
 "http://www.w3.org/TR/2001/REC-SVG-20010904/DTD/svg10.dtd">
<svg version="1.0" xmlns="http://www.w3.org/2000/svg"
 width="512.000000pt" height="512.000000pt" viewBox="0 0 512.000000 512.000000"
 preserveAspectRatio="xMidYMid meet">
<metadata>
Created by potrace 1.14, written by Peter Selinger 2001-2017
</metadata>
<g transform="translate(0.000000,512.000000) scale(0.100000,-0.100000)"
fill="#000000" stroke="none">
<path d="M0 2560 l0 -2560 2560 0 2560 0 0 2560 0 2560 -2560 0 -2560 0 0
-2560z m2800 2091 c539 -74 909 -324 1025 -691 67 -211 57 -469 -24 -645 -109
-236 -322 -405 -631 -500 -111 -34 -213 -56 -296 -64 -121 -11 -114 -31 22
-62 49 -11 132 -29 184 -41 52 -11 125 -29 162 -39 36 -11 73 -19 81 -19 18 0
199 -75 236 -97 180 -112 265 -207 346 -393 46 -107 89 -343 100 -560 4 -69 8
-138 10 -155 2 -16 10 -127 19 -245 31 -399 71 -556 157 -615 36 -26 48 -28
128 -28 105 0 129 11 237 114 56 54 75 67 93 62 29 -8 45 -38 32 -62 -23 -41
-156 -151 -225 -184 -90 -44 -268 -77 -412 -77 -106 0 -330 33 -374 55 -14 7
-37 15 -51 18 -46 11 -173 102 -235 169 -64 69 -108 139 -141 228 -55 144 -62
198 -93 720 -11 184 -27 378 -35 430 -16 101 -58 254 -81 298 -8 15 -14 31
-14 36 0 4 -20 39 -46 77 -88 133 -221 226 -364 256 -39 9 -164 16 -307 20
l-242 6 -11 -27 c-13 -36 -14 -2065 0 -2086 8 -13 48 -15 246 -17 159 -2 241
-6 250 -14 19 -15 18 -44 -2 -63 -14 -14 -112 -16 -930 -16 l-914 0 0 45 c0
36 4 45 18 46 9 0 119 0 243 -1 196 -1 229 1 243 15 15 15 16 185 16 2000 0
1091 -3 1990 -6 1999 -5 14 -38 16 -260 16 l-254 0 0 45 0 45 578 1 c317 1
645 5 727 9 209 10 693 5 795 -9z"/>
<path d="M2162 4570 c-51 -5 -99 -14 -107 -20 -13 -11 -15 -131 -15 -896 0
-821 1 -884 17 -900 16 -15 36 -16 215 -10 154 5 212 11 261 26 34 11 67 20
73 20 7 0 48 20 92 45 134 76 217 195 263 380 21 84 23 112 22 395 0 290 -1
311 -26 425 -39 183 -82 280 -161 363 -102 109 -209 155 -396 172 -63 5 -122
9 -130 8 -8 0 -57 -4 -108 -8z"/>
</g>
</svg>
